<?xml version="1.0" encoding="UTF-8" standalone="no"?>
<svg
   xmlns:dc="http://purl.org/dc/elements/1.1/"
   xmlns:cc="http://creativecommons.org/ns#"
   xmlns:rdf="http://www.w3.org/1999/02/22-rdf-syntax-ns#"
   xmlns:svg="http://www.w3.org/2000/svg"
   xmlns="http://www.w3.org/2000/svg"
   xmlns:sodipodi="http://sodipodi.sourceforge.net/DTD/sodipodi-0.dtd"
   xmlns:inkscape="http://www.inkscape.org/namespaces/inkscape"
   width="127.01888mm"
   height="110.566mm"
   viewBox="0 0 127.01888 110.566"
   version="1.1"
   id="svg8"
   inkscape:version="1.0.1 (c497b03c, 2020-09-10)"
   sodipodi:docname="perfpage.svg">
  <defs
     id="defs2" />
  <sodipodi:namedview
     id="base"
     pagecolor="#ffffff"
     bordercolor="#666666"
     borderopacity="1.0"
     inkscape:pageopacity="0.0"
     inkscape:pageshadow="2"
     inkscape:zoom="0.35"
     inkscape:cx="267.17855"
     inkscape:cy="311.80076"
     inkscape:document-units="mm"
     inkscape:current-layer="layer1"
     inkscape:document-rotation="0"
     showgrid="false"
     fit-margin-top="0"
     fit-margin-left="0"
     fit-margin-right="0"
     fit-margin-bottom="0"
     inkscape:window-width="1434"
     inkscape:window-height="1174"
     inkscape:window-x="0"
     inkscape:window-y="25"
     inkscape:window-maximized="0" />
  <metadata
     id="metadata5">
    <rdf:RDF>
      <cc:Work
         rdf:about="">
        <dc:format>image/svg+xml</dc:format>
        <dc:type
           rdf:resource="http://purl.org/dc/dcmitype/StillImage" />
        <dc:title></dc:title>
      </cc:Work>
    </rdf:RDF>
  </metadata>
  <g
     inkscape:label="Calque 1"
     inkscape:groupmode="layer"
     id="layer1"
     transform="translate(-33.630436,-61.889622)">
    <g
       style="overflow:visible"
       id="g28"
       transform="matrix(0.50655345,0,0,0.50605974,-156.0637,-105.61275)">
      <path
         d="m 416.22,331.26 c 23.24,-0.53 46.51,-0.08 69.77,-0.23 32.74,-0.02 65.47,0.04 98.21,-0.03 11.8,20.18 23.28,40.55 35.16,60.7 1.84,3.2 3.83,6.34 5.29,9.75 1.81,3.41 -1.06,6.73 -2.45,9.74 -12.95,21.73 -25.16,43.89 -38.19,65.58 -27.97,-0.18 -55.94,-0.07 -83.91,-0.15 14.16,-24.14 28.25,-48.33 41.9,-72.76 -55.84,-0.15 -111.68,0.04 -167.52,-0.13 13.86,-24.19 27.77,-48.35 41.74,-72.47 z m 0.1,145.44 c 27.92,-0.08 55.84,-0.15 83.76,0 -13.65,24.41 -27.8,48.53 -41.77,72.76 -27.94,-0.09 -55.87,0.16 -83.81,-0.12 9.66,-17.21 19.85,-34.12 29.41,-51.37 3.88,-7.24 8.22,-14.22 12.41,-21.27 z"
         id="path10"
         style="fill:#CC5F00" />
    </g>
  </g>
</svg>
